<svg width="24" height="24" viewBox="0 0 24 24" fill="none" xmlns="http://www.w3.org/2000/svg">
<g clip-path="url(#clip0_9_616)">
<path fill-rule="evenodd" clip-rule="evenodd" d="M12 0C18.6277 0 24 5.37234 24 12C24 18.6277 18.6277 24 12 24C5.37234 24 0 18.6277 0 12C0 5.37234 5.37234 0 12 0Z" fill="url(#paint0_linear_9_616)"/>
<path d="M17.4009 7.66453L15.6923 16.2778C15.6923 16.2778 15.4533 16.875 14.7966 16.5886L10.8544 13.5661L9.42047 12.8733L7.00735 12.0609C7.00735 12.0609 6.63703 11.9292 6.60141 11.6428C6.56531 11.3559 7.01953 11.2008 7.01953 11.2008L16.6125 7.43766C16.6125 7.43766 17.4009 7.09125 17.4009 7.66453Z" fill="#FEFEFE"/>
<path d="M12.3937 14.9325L10.7152 16.463C10.7152 16.463 10.5844 16.5623 10.4405 16.5C10.2291 16.4695 9.6089 14.2589 9.22406 12.9398L9.54609 12.735L12.3937 14.9325Z" fill="#B5D2E5"/>
<path d="M10.4405 16.5C10.2117 16.4784 9.34172 13.3252 9.22406 12.9398L15.4598 8.97937C15.7842 8.7825 15.9577 8.93766 15.6783 9.19828C15.4856 9.37828 10.7798 13.6083 10.7798 13.6083L10.4405 16.5Z" fill="#D3E7F2"/>
</g>
<defs>
<linearGradient id="paint0_linear_9_616" x1="3.17953" y1="3.86344" x2="22.2277" y2="18.2803" gradientUnits="userSpaceOnUse">
<stop stop-color="#28AAE0"/>
<stop offset="1" stop-color="#23B7EC"/>
</linearGradient>
<clipPath id="clip0_9_616">
<rect width="24" height="24" fill="white"/>
</clipPath>
</defs>
</svg>
