<svg width="32" height="32" viewBox="0 0 32 32" fill="none" xmlns="http://www.w3.org/2000/svg">
<g clip-path="url(#clip0_561_1376)">
<path d="M20.6675 18.6665H19.6142L19.2408 18.3065C20.8408 16.4399 21.6675 13.8932 21.2142 11.1865C20.5875 7.47986 17.4942 4.51986 13.7608 4.06652C8.12083 3.37319 3.37417 8.11986 4.0675 13.7599C4.52083 17.4932 7.48083 20.5865 11.1875 21.2132C13.8942 21.6665 16.4408 20.8399 18.3075 19.2399L18.6675 19.6132V20.6665L24.3342 26.3332C24.8808 26.8799 25.7742 26.8799 26.3208 26.3332C26.8675 25.7865 26.8675 24.8932 26.3208 24.3465L20.6675 18.6665ZM12.6675 18.6665C9.3475 18.6665 6.6675 15.9865 6.6675 12.6665C6.6675 9.34652 9.3475 6.66652 12.6675 6.66652C15.9875 6.66652 18.6675 9.34652 18.6675 12.6665C18.6675 15.9865 15.9875 18.6665 12.6675 18.6665Z" fill="#5E5F78"/>
</g>
<defs>
<clipPath id="clip0_561_1376">
<rect width="32" height="32" fill="white"/>
</clipPath>
</defs>
</svg>
