<svg width="24" height="24" viewBox="0 0 24 24" fill="none" xmlns="http://www.w3.org/2000/svg">
<path fill-rule="evenodd" clip-rule="evenodd" d="M12 0C18.6277 0 24 5.37234 24 12C24 18.6277 18.6277 24 12 24C5.37234 24 0 18.6277 0 12C0 5.37234 5.37234 0 12 0Z" fill="url(#paint0_linear_1088_7738)"/>
<path d="M17.4012 7.66458L15.6926 16.2779C15.6926 16.2779 15.4535 16.8751 14.7968 16.5886L10.8546 13.5661L9.42071 12.8733L7.00759 12.061C7.00759 12.061 6.63728 11.9293 6.60165 11.6429C6.56556 11.356 7.01978 11.2008 7.01978 11.2008L16.6127 7.43771C16.6127 7.43771 17.4012 7.0913 17.4012 7.66458Z" fill="#FEFEFE"/>
<path d="M12.3943 14.9324L10.7157 16.4628C10.7157 16.4628 10.5849 16.5622 10.441 16.4999C10.2296 16.4694 9.60945 14.2588 9.22461 12.9397L9.54664 12.7349L12.3943 14.9324Z" fill="#B5D2E5"/>
<path d="M10.441 16.5002C10.2123 16.4787 9.34227 13.3254 9.22461 12.9401L15.4604 8.97959C15.7848 8.78271 15.9582 8.93787 15.6788 9.19849C15.4862 9.37849 10.7804 13.6085 10.7804 13.6085L10.441 16.5002Z" fill="#D3E7F2"/>
<defs>
<linearGradient id="paint0_linear_1088_7738" x1="3.17953" y1="3.86344" x2="22.2277" y2="18.2803" gradientUnits="userSpaceOnUse">
<stop stop-color="#28AAE0"/>
<stop offset="1" stop-color="#23B7EC"/>
</linearGradient>
</defs>
</svg>
